<svg width="22" height="20" viewBox="0 0 22 20" fill="none" xmlns="http://www.w3.org/2000/svg">
  <path fill-rule="evenodd" clip-rule="evenodd" d="M19.3257 6.04797C19.3257 6.30463 19.2237 6.55078 19.0422 6.73227C18.8608 6.91376 18.6146 7.01571 18.3579 7.01571L7.92439 7.01571C7.66773 7.01571 7.42158 6.91376 7.2401 6.73227C7.05861 6.55078 6.95665 6.30463 6.95665 6.04797C6.95665 5.79131 7.05861 5.54516 7.2401 5.36368C7.42158 5.18219 7.66773 5.08023 7.92439 5.08023L18.3567 5.08023C18.6133 5.08023 18.8595 5.18219 19.0409 5.36368C19.2224 5.54516 19.3257 5.79131 19.3257 6.04797Z" fill="black"/>
  <path fill-rule="evenodd" clip-rule="evenodd" d="M1.71436 13.9521C1.71436 13.6954 1.81631 13.4492 1.9978 13.2678C2.17929 13.0863 2.42544 12.9843 2.6821 12.9843L13.1156 12.9843C13.3723 12.9843 13.6185 13.0863 13.7999 13.2678C13.9814 13.4492 14.0834 13.6954 14.0834 13.9521C14.0834 14.2087 13.9814 14.4549 13.7999 14.6364C13.6185 14.8178 13.3723 14.9198 13.1156 14.9198L2.68339 14.9198C2.42673 14.9198 2.18058 14.8178 1.99909 14.6364C1.8176 14.4549 1.71436 14.2087 1.71436 13.9521Z" fill="black"/>
  <path fill-rule="evenodd" clip-rule="evenodd" d="M20.7656 5.37079C20.9422 5.55157 21.041 5.79423 21.041 6.04692C21.041 6.2996 20.9422 6.54226 20.7656 6.72304L16.5514 11.0379C16.3713 11.2177 16.1276 11.3193 15.8731 11.3206C15.6185 11.322 15.3737 11.2231 15.1916 11.0452C15.0096 10.8674 14.9049 10.625 14.9002 10.3705C14.8956 10.116 14.9914 9.86996 15.1669 9.68562L18.7205 6.04691L15.1669 2.40821C15.0762 2.3177 15.0044 2.21008 14.9557 2.0916C14.9069 1.97312 14.8821 1.84613 14.8828 1.71801C14.8835 1.58988 14.9096 1.46317 14.9597 1.34523C15.0097 1.22728 15.0827 1.12044 15.1744 1.03092C15.266 0.941396 15.3746 0.870964 15.4936 0.823711C15.6127 0.776458 15.74 0.753325 15.8681 0.755653C15.9962 0.757981 16.1226 0.785724 16.2399 0.837274C16.3572 0.888823 16.4631 0.963151 16.5514 1.05595L20.7656 5.37079Z" fill="black"/>
  <path fill-rule="evenodd" clip-rule="evenodd" d="M0.274397 14.6292C0.0978549 14.4484 -0.000976783 14.2058 -0.000976794 13.9531C-0.000976805 13.7004 0.0978549 13.4577 0.274397 13.277L4.48859 8.96212C4.66874 8.78232 4.91247 8.68073 5.16699 8.67936C5.4215 8.67798 5.66631 8.77693 5.8484 8.95477C6.03048 9.13261 6.13517 9.37502 6.13979 9.6295C6.14442 9.88398 6.04861 10.13 5.87311 10.3144L2.31956 13.9531L5.87311 17.5918C5.9638 17.6823 6.03561 17.7899 6.08438 17.9084C6.13315 18.0269 6.1579 18.1539 6.15721 18.282C6.15652 18.4101 6.13039 18.5368 6.08035 18.6548C6.0303 18.7727 5.95733 18.8796 5.86567 18.9691C5.77401 19.0586 5.66548 19.129 5.54639 19.1763C5.4273 19.2235 5.3 19.2467 5.1719 19.2443C5.0438 19.242 4.91743 19.2143 4.80013 19.1627C4.68283 19.1112 4.57694 19.0368 4.48859 18.9441L0.274397 14.6292Z" fill="black"/>
</svg>
