<svg width="12" height="17" viewBox="0 0 12 17" fill="none" xmlns="http://www.w3.org/2000/svg">
<path fill-rule="evenodd" clip-rule="evenodd" d="M5.98883 14.5512C5.69727 14.5512 5.41764 14.4354 5.21147 14.2292C5.0053 14.0231 4.88948 13.7435 4.88948 13.4519L4.88948 1.59936C4.88948 1.30779 5.0053 1.02816 5.21147 0.821995C5.41764 0.615826 5.69727 0.5 5.98883 0.5C6.2804 0.5 6.56003 0.615826 6.7662 0.821996C6.97237 1.02816 7.08819 1.30779 7.08819 1.59936L7.08819 13.4504C7.08819 13.742 6.97236 14.0216 6.7662 14.2278C6.56003 14.434 6.2804 14.5512 5.98883 14.5512Z" fill="#F2F2F2"/>
<path fill-rule="evenodd" clip-rule="evenodd" d="M6.75808 16.1872C6.55271 16.3877 6.27705 16.5 5.99 16.5C5.70295 16.5 5.42728 16.3877 5.22192 16.1872L0.320253 11.3998C0.116005 11.1952 0.000601686 10.9183 -0.000960517 10.6292C-0.00252164 10.3401 0.109885 10.0619 0.311911 9.8551C0.513937 9.64826 0.789315 9.52933 1.0784 9.52407C1.36749 9.51882 1.64701 9.62766 1.85642 9.82703L5.99 13.8639L10.1236 9.82703C10.2264 9.72401 10.3487 9.64243 10.4832 9.58703C10.6178 9.53163 10.7621 9.5035 10.9076 9.50429C11.0532 9.50507 11.1971 9.53475 11.3311 9.59161C11.4651 9.64846 11.5865 9.73136 11.6882 9.83548C11.7899 9.93961 11.8699 10.0629 11.9236 10.1982C11.9772 10.3335 12.0035 10.4781 12.0009 10.6236C11.9982 10.7691 11.9667 10.9127 11.9082 11.0459C11.8496 11.1792 11.7652 11.2995 11.6597 11.3998L6.75808 16.1872Z" fill="#F2F2F2"/>
</svg>
