<svg width="21" height="20" viewBox="0 0 21 20" fill="none" xmlns="http://www.w3.org/2000/svg">
  <path fill-rule="evenodd" clip-rule="evenodd" d="M1.48776 13.0334C1.74442 13.0334 1.99057 13.1354 2.17206 13.3169C2.35355 13.4984 2.4555 13.7445 2.4555 14.0012V16.9083C2.4555 17.0864 2.60002 17.2309 2.77808 17.2309H18.262C18.3475 17.2309 18.4296 17.1969 18.4901 17.1364C18.5505 17.0759 18.5845 16.9938 18.5845 16.9083V14.0012C18.5845 13.7445 18.6865 13.4984 18.868 13.3169C19.0495 13.1354 19.2956 13.0334 19.5523 13.0334C19.8089 13.0334 20.0551 13.1354 20.2366 13.3169C20.4181 13.4984 20.52 13.7445 20.52 14.0012V16.9083C20.52 17.5072 20.2821 18.0815 19.8586 18.505C19.4352 18.9284 18.8608 19.1664 18.262 19.1664H2.77808C2.17921 19.1664 1.60486 18.9284 1.18139 18.505C0.757922 18.0815 0.52002 17.5072 0.52002 16.9083V14.0012C0.52002 13.7445 0.621978 13.4984 0.803464 13.3169C0.984951 13.1354 1.2311 13.0334 1.48776 13.0334Z" fill="black"/>
  <path fill-rule="evenodd" clip-rule="evenodd" d="M10.7615 13.2027C10.5048 13.2027 10.2587 13.1007 10.0772 12.9192C9.89572 12.7377 9.79376 12.4916 9.79376 12.2349L9.79377 1.80138C9.79377 1.54472 9.89572 1.29857 10.0772 1.11708C10.2587 0.935593 10.5048 0.833634 10.7615 0.833634C11.0182 0.833634 11.2643 0.935594 11.4458 1.11708C11.6273 1.29857 11.7292 1.54472 11.7292 1.80138L11.7292 12.2336C11.7292 12.4903 11.6273 12.7364 11.4458 12.9179C11.2643 13.0994 11.0182 13.2027 10.7615 13.2027Z" fill="black"/>
  <path fill-rule="evenodd" clip-rule="evenodd" d="M11.4387 14.6427C11.2579 14.8193 11.0152 14.9181 10.7625 14.9181C10.5098 14.9181 10.2672 14.8193 10.0864 14.6427L5.77157 10.4286C5.59177 10.2484 5.49018 10.0047 5.48881 9.75016C5.48743 9.49564 5.58638 9.25083 5.76422 9.06875C5.94206 8.88667 6.18447 8.78197 6.43895 8.77735C6.69343 8.77272 6.93949 8.86854 7.12382 9.04404L10.7625 12.5976L14.4012 9.04404C14.4918 8.95335 14.5994 8.88154 14.7178 8.83277C14.8363 8.784 14.9633 8.75924 15.0914 8.75993C15.2196 8.76062 15.3463 8.78675 15.4642 8.8368C15.5822 8.88685 15.689 8.95982 15.7785 9.05148C15.8681 9.14314 15.9385 9.25166 15.9857 9.37076C16.033 9.48985 16.0561 9.61714 16.0538 9.74524C16.0515 9.87335 16.0237 9.99972 15.9722 10.117C15.9206 10.2343 15.8463 10.3402 15.7535 10.4286L11.4387 14.6427Z" fill="black"/>
</svg>