<svg width="21" height="20" viewBox="0 0 21 20" fill="none" xmlns="http://www.w3.org/2000/svg">
  <path fill-rule="evenodd" clip-rule="evenodd" d="M1.48776 13.0334C1.74442 13.0334 1.99057 13.1354 2.17206 13.3169C2.35355 13.4984 2.4555 13.7445 2.4555 14.0012V16.9083C2.4555 17.0864 2.60002 17.2309 2.77808 17.2309H18.262C18.3475 17.2309 18.4296 17.1969 18.4901 17.1364C18.5505 17.0759 18.5845 16.9938 18.5845 16.9083V14.0012C18.5845 13.7445 18.6865 13.4984 18.868 13.3169C19.0495 13.1354 19.2956 13.0334 19.5523 13.0334C19.8089 13.0334 20.0551 13.1354 20.2366 13.3169C20.4181 13.4984 20.52 13.7445 20.52 14.0012V16.9083C20.52 17.5072 20.2821 18.0815 19.8586 18.505C19.4352 18.9284 18.8608 19.1664 18.262 19.1664H2.77808C2.17921 19.1664 1.60486 18.9284 1.18139 18.505C0.757922 18.0815 0.52002 17.5072 0.52002 16.9083V14.0012C0.52002 13.7445 0.621978 13.4984 0.803464 13.3169C0.984951 13.1354 1.2311 13.0334 1.48776 13.0334Z" fill="black"/>
  <path fill-rule="evenodd" clip-rule="evenodd" d="M10.7812 2.5491C11.0379 2.5491 11.284 2.65106 11.4655 2.83255C11.647 3.01403 11.749 3.26018 11.749 3.51684V13.9504C11.749 14.2071 11.647 14.4532 11.4655 14.6347C11.284 14.8162 11.0379 14.9181 10.7812 14.9181C10.5246 14.9181 10.2784 14.8162 10.0969 14.6347C9.91544 14.4532 9.81348 14.2071 9.81348 13.9504V3.51813C9.81348 3.26147 9.91544 3.01533 10.0969 2.83384C10.2784 2.65235 10.5246 2.5491 10.7812 2.5491Z" fill="black"/>
  <path fill-rule="evenodd" clip-rule="evenodd" d="M10.1043 1.10902C10.2851 0.93248 10.5278 0.833649 10.7804 0.833649C11.0331 0.833649 11.2758 0.93248 11.4566 1.10902L15.7714 5.32322C15.9512 5.50337 16.0528 5.7471 16.0542 6.00161C16.0555 6.25613 15.9566 6.50094 15.7787 6.68302C15.6009 6.8651 15.3585 6.9698 15.104 6.97442C14.8495 6.97905 14.6035 6.88323 14.4191 6.70773L10.7804 3.15418L7.14173 6.70773C7.05122 6.79842 6.9436 6.87023 6.82512 6.919C6.70664 6.96777 6.57965 6.99253 6.45153 6.99184C6.32341 6.99115 6.19669 6.96502 6.07875 6.91497C5.9608 6.86492 5.85397 6.79195 5.76444 6.70029C5.67492 6.60863 5.60448 6.50011 5.55723 6.38101C5.50998 6.26192 5.48685 6.13463 5.48917 6.00653C5.4915 5.87842 5.51925 5.75205 5.57079 5.63476C5.62234 5.51746 5.69667 5.41156 5.78947 5.32322L10.1043 1.10902Z" fill="black"/>
</svg>
