<svg width="12" height="17" viewBox="0 0 12 17" fill="none" xmlns="http://www.w3.org/2000/svg">
<path fill-rule="evenodd" clip-rule="evenodd" d="M6.011 2.44875C6.30257 2.44875 6.58219 2.56458 6.78836 2.77075C6.99453 2.97692 7.11036 3.25654 7.11036 3.54811V15.4006C7.11036 15.6922 6.99453 15.9718 6.78836 16.178C6.58219 16.3842 6.30257 16.5 6.011 16.5C5.71943 16.5 5.43981 16.3842 5.23364 16.178C5.02747 15.9718 4.91164 15.6922 4.91164 15.4006V3.54957C4.91164 3.25801 5.02747 2.97838 5.23364 2.77221C5.43981 2.56604 5.71943 2.44875 6.011 2.44875Z" fill="#F2F2F2"/>
<path fill-rule="evenodd" clip-rule="evenodd" d="M5.24201 0.812825C5.44738 0.612273 5.72304 0.5 6.01009 0.5C6.29714 0.5 6.57281 0.612273 6.77817 0.812825L11.6798 5.60016C11.8841 5.80481 11.9995 6.08169 12.0011 6.37082C12.0026 6.65995 11.8902 6.93806 11.6882 7.1449C11.4862 7.35175 11.2108 7.47068 10.9217 7.47593C10.6326 7.48118 10.3531 7.37234 10.1437 7.17297L6.01009 3.13613L1.87651 7.17297C1.77369 7.27599 1.65144 7.35757 1.51684 7.41297C1.38225 7.46838 1.23799 7.4965 1.09244 7.49572C0.946894 7.49493 0.80295 7.46525 0.668962 7.4084C0.534974 7.35154 0.413609 7.26865 0.311909 7.16452C0.210209 7.0604 0.130198 6.93711 0.0765189 6.80182C0.0228393 6.66653 -0.00343988 6.52193 -0.000795031 6.3764C0.00184982 6.23087 0.0333665 6.08732 0.0919266 5.95407C0.150487 5.82082 0.234923 5.70052 0.34034 5.60016L5.24201 0.812825Z" fill="#F2F2F2"/>
</svg>
