<svg width="20" height="21" viewBox="0 0 20 21" fill="none" xmlns="http://www.w3.org/2000/svg">
    <path d="M4.99992 18.8333C4.54159 18.8333 4.14936 18.6703 3.82325 18.3441C3.49714 18.018 3.33381 17.6255 3.33325 17.1666V8.83331C3.33325 8.37498 3.49659 7.98276 3.82325 7.65665C4.14992 7.33054 4.54214 7.1672 4.99992 7.16665H5.83325V5.49998C5.83325 4.3472 6.23964 3.3647 7.05242 2.55248C7.8652 1.74026 8.8477 1.33387 9.99992 1.33331C11.1521 1.33276 12.1349 1.73915 12.9483 2.55248C13.7616 3.36581 14.1677 4.34831 14.1666 5.49998V7.16665H14.9999C15.4583 7.16665 15.8508 7.32998 16.1774 7.65665C16.5041 7.98331 16.6671 8.37554 16.6666 8.83331V17.1666C16.6666 17.625 16.5035 18.0175 16.1774 18.3441C15.8513 18.6708 15.4588 18.8339 14.9999 18.8333H4.99992ZM9.99992 14.6666C10.4583 14.6666 10.8508 14.5036 11.1774 14.1775C11.5041 13.8514 11.6671 13.4589 11.6666 13C11.666 12.5411 11.503 12.1489 11.1774 11.8233C10.8519 11.4978 10.4594 11.3344 9.99992 11.3333C9.54047 11.3322 9.14825 11.4955 8.82325 11.8233C8.49825 12.1511 8.33492 12.5433 8.33325 13C8.33158 13.4566 8.49492 13.8491 8.82325 14.1775C9.15159 14.5058 9.54381 14.6689 9.99992 14.6666ZM7.49992 7.16665H12.4999V5.49998C12.4999 4.80554 12.2569 4.21526 11.7708 3.72915C11.2846 3.24304 10.6944 2.99998 9.99992 2.99998C9.30547 2.99998 8.7152 3.24304 8.22908 3.72915C7.74297 4.21526 7.49992 4.80554 7.49992 5.49998V7.16665Z" fill="#7C7C83"/>
</svg>
