<svg width="15" height="14" viewBox="0 0 15 14" fill="none" xmlns="http://www.w3.org/2000/svg">
  <path d="M8.22559 4.66667H2.39225C1.74884 4.66667 1.22559 5.18992 1.22559 5.83334V11.6667C1.22559 12.3101 1.74884 12.8333 2.39225 12.8333H8.22559C8.869 12.8333 9.39225 12.3101 9.39225 11.6667V5.83334C9.39225 5.18992 8.869 4.66667 8.22559 4.66667Z" fill="#8C8C8C"/>
  <path d="M11.7256 1.16667H5.89225C5.58283 1.16667 5.28609 1.28959 5.06729 1.50838C4.8485 1.72717 4.72559 2.02392 4.72559 2.33334V3.50001H9.39225C9.70167 3.50001 9.99842 3.62292 10.2172 3.84171C10.436 4.06051 10.5589 4.35725 10.5589 4.66667V9.33334H11.7256C12.035 9.33334 12.3318 9.21042 12.5505 8.99163C12.7693 8.77284 12.8923 8.47609 12.8923 8.16667V2.33334C12.8923 2.02392 12.7693 1.72717 12.5505 1.50838C12.3318 1.28959 12.035 1.16667 11.7256 1.16667Z" fill="#8C8C8C"/>
</svg>
