<svg width="33" height="33" viewBox="0 0 33 33" fill="none" xmlns="http://www.w3.org/2000/svg">
  <rect x="0.52002" y="0.5" width="32" height="32" rx="16" fill="none"/>
  <path d="M16.5199 8.57141C14.9518 8.57141 13.4189 9.03641 12.115 9.90762C10.8112 10.7788 9.79494 12.0171 9.19484 13.4659C8.59474 14.9146 8.43773 16.5088 8.74366 18.0468C9.04958 19.5848 9.80471 20.9975 10.9135 22.1064C12.0224 23.2152 13.4351 23.9703 14.9731 24.2762C16.5111 24.5822 18.1053 24.4251 19.554 23.8251C21.0028 23.225 22.2411 22.2087 23.1123 20.9049C23.9835 19.601 24.4485 18.0681 24.4485 16.5C24.4461 14.3979 23.61 12.3827 22.1236 10.8963C20.6372 9.40994 18.6219 8.57383 16.5199 8.57141ZM23.2287 16.5C23.2292 17.1187 23.1438 17.7345 22.9748 18.3297H20.039C20.226 17.1171 20.226 15.8829 20.039 14.6703H22.9748C23.1438 15.2655 23.2292 15.8813 23.2287 16.5ZM14.5378 19.5495H18.502C18.1115 20.8291 17.4335 22.0026 16.5199 22.9801C15.6066 22.0023 14.9287 20.829 14.5378 19.5495ZM14.2404 18.3297C14.031 17.1189 14.031 15.8811 14.2404 14.6703H18.8055C19.0149 15.8811 19.0149 17.1189 18.8055 18.3297H14.2404ZM9.81109 16.5C9.81056 15.8813 9.896 15.2655 10.065 14.6703H13.0008C12.8138 15.8829 12.8138 17.1171 13.0008 18.3297H10.065C9.896 17.7345 9.81056 17.1187 9.81109 16.5ZM18.502 13.4505H14.5378C14.9283 12.1708 15.6063 10.9974 16.5199 10.0199C17.4332 10.9977 18.1111 12.171 18.502 13.4505ZM22.4915 13.4505H19.776C19.4337 12.1949 18.8568 11.0153 18.0759 9.97416C19.0195 10.2008 19.9029 10.6289 20.6656 11.2289C21.4282 11.8289 22.0522 12.5868 22.4945 13.4505H22.4915ZM14.9639 9.97416C14.1829 11.0153 13.6061 12.1949 13.2638 13.4505H10.5453C10.9876 12.5868 11.6115 11.8289 12.3742 11.2289C13.1369 10.6289 14.0203 10.2008 14.9639 9.97416ZM10.5453 19.5495H13.2638C13.6061 20.8051 14.1829 21.9847 14.9639 23.0258C14.0203 22.7992 13.1369 22.3711 12.3742 21.7711C11.6115 21.1711 10.9876 20.4132 10.5453 19.5495ZM18.0759 23.0258C18.8568 21.9847 19.4337 20.8051 19.776 19.5495H22.4945C22.0522 20.4132 21.4282 21.1711 20.6656 21.7711C19.9029 22.3711 19.0195 22.7992 18.0759 23.0258Z" fill="#7B7B7B"/>
  <circle cx="27.52" cy="27.5" r="4.25" fill="white" stroke="#8C8C8C" stroke-width="1.5"/>
</svg>
