<svg width="32" height="33" viewBox="0 0 32 33" fill="none" xmlns="http://www.w3.org/2000/svg">
  <rect y="0.5" width="32" height="32" rx="16" fill="none"/>
  <path d="M16 8.57141C14.4319 8.57141 12.899 9.03641 11.5951 9.90762C10.2913 10.7788 9.27504 12.0171 8.67494 13.4659C8.07485 14.9146 7.91783 16.5088 8.22376 18.0468C8.52969 19.5848 9.28481 20.9975 10.3936 22.1064C11.5025 23.2152 12.9152 23.9703 14.4532 24.2762C15.9912 24.5822 17.5854 24.4251 19.0341 23.8251C20.4829 23.225 21.7212 22.2087 22.5924 20.9049C23.4636 19.601 23.9286 18.0681 23.9286 16.5C23.9262 14.3979 23.0901 12.3827 21.6037 10.8963C20.1173 9.40994 18.102 8.57383 16 8.57141ZM22.7088 16.5C22.7093 17.1187 22.6239 17.7345 22.4549 18.3297H19.5191C19.7061 17.1171 19.7061 15.8829 19.5191 14.6703H22.4549C22.6239 15.2655 22.7093 15.8813 22.7088 16.5ZM14.0179 19.5495H17.9821C17.5916 20.8291 16.9136 22.0026 16 22.9801C15.0867 22.0023 14.4088 20.829 14.0179 19.5495ZM13.7205 18.3297C13.5111 17.1189 13.5111 15.8811 13.7205 14.6703H18.2856C18.495 15.8811 18.495 17.1189 18.2856 18.3297H13.7205ZM9.2912 16.5C9.29067 15.8813 9.37611 15.2655 9.54506 14.6703H12.4809C12.2939 15.8829 12.2939 17.1171 12.4809 18.3297H9.54506C9.37611 17.7345 9.29067 17.1187 9.2912 16.5ZM17.9821 13.4505H14.0179C14.4084 12.1708 15.0864 10.9974 16 10.0199C16.9133 10.9977 17.5912 12.171 17.9821 13.4505ZM21.9716 13.4505H19.2561C18.9138 12.1949 18.337 11.0153 17.556 9.97416C18.4996 10.2008 19.383 10.6289 20.1457 11.2289C20.9084 11.8289 21.5323 12.5868 21.9746 13.4505H21.9716ZM14.444 9.97416C13.663 11.0153 13.0862 12.1949 12.7439 13.4505H10.0254C10.4677 12.5868 11.0916 11.8289 11.8543 11.2289C12.617 10.6289 13.5004 10.2008 14.444 9.97416ZM10.0254 19.5495H12.7439C13.0862 20.8051 13.663 21.9847 14.444 23.0258C13.5004 22.7992 12.617 22.3711 11.8543 21.7711C11.0916 21.1711 10.4677 20.4132 10.0254 19.5495ZM17.556 23.0258C18.337 21.9847 18.9138 20.8051 19.2561 19.5495H21.9746C21.5323 20.4132 20.9084 21.1711 20.1457 21.7711C19.383 22.3711 18.4996 22.7992 17.556 23.0258Z" fill="#7B7B7B"/>
  <circle cx="27" cy="27.5" r="5" fill="#20c580"/>
</svg>
