<svg width="140" height="93" viewBox="0 0 140 93" fill="none" xmlns="http://www.w3.org/2000/svg">
<path fill-rule="evenodd" clip-rule="evenodd" d="M38.5381 0.92627C55.4141 5.05451 86.435 25.5565 101.462 46.735C96.4058 43.8497 77.7374 36.5138 63.5584 38.0538C67.0795 38.3625 70.8462 39.5389 74.3099 41.0047C76.0871 43.6979 77.7376 46.5886 79.2261 49.6893C74.347 45.6781 60.8646 40.0547 48.4359 46.0892C50.8044 37.6298 50.3947 25.4671 39.8271 12.6128C42.6472 13.8366 45.5836 15.2922 48.5519 17.0094C52.0191 21.1258 53.6507 26.3601 54.2492 30.6116C53.903 20.5478 50.3627 7.74409 38.5381 0.92627Z" fill="#7E7E83"/>
<path d="M0 65.833H5.86029C9.16424 65.833 11.5759 66.5445 13.0952 67.9673C14.6387 69.366 15.4104 71.2953 15.4104 73.7552C15.4104 76.6008 14.5784 78.7833 12.9143 80.3027C11.2503 81.822 8.77837 82.5816 5.49854 82.5816H4.08773V92.421H0V65.833ZM5.60707 79.0004C7.72931 79.0004 9.21247 78.5301 10.0565 77.5896C10.9006 76.6491 11.3227 75.5156 11.3227 74.1892C11.3227 72.7664 10.9127 71.6088 10.0927 70.7165C9.27276 69.8242 7.89813 69.3781 5.96881 69.3781H4.08773V79.0004H5.60707Z" fill="#7E7E83"/>
<path d="M18.6036 65.833H30.2519V69.3781H22.619V76.7214H28.7687V80.3388H22.619V88.8397H31.4456V92.421H18.6036V65.833Z" fill="#7E7E83"/>
<path d="M34.9834 65.833H39.0711V88.8036H46.704V92.421H34.9834V65.833Z" fill="#7E7E83"/>
<path d="M62.5175 65.7968L75.3233 92.4209H70.6567L68.3777 87.2119H56.1869L53.9079 92.4209H49.3861L62.1195 65.7968H62.5175ZM60.7087 77.1193L57.8148 83.5583H66.7861L63.9283 77.1555L62.3728 73.5019H62.3004L60.7087 77.1193Z" fill="#7E7E83"/>
<path d="M87.9719 92.7827C85.3432 92.7827 82.9918 92.1798 80.9178 90.974C78.8438 89.7682 77.216 88.1162 76.0343 86.0181C74.8767 83.8959 74.2979 81.5205 74.2979 78.8918C74.2979 76.3355 74.8887 74.0324 76.0704 71.9826C77.2521 69.9327 78.892 68.329 80.9902 67.1714C83.0883 66.0138 85.4517 65.4351 88.0804 65.4351C89.5033 65.4351 90.7814 65.5677 91.9149 65.833C93.0725 66.0741 94.013 66.3635 94.7365 66.7012C95.46 67.0147 95.9544 67.292 96.2197 67.5332L94.628 70.9335C93.1328 69.7277 90.9261 69.1248 88.008 69.1248C86.0787 69.1248 84.4026 69.5468 82.9798 70.3909C81.5569 71.235 80.4717 72.3805 79.7241 73.8274C78.9765 75.2744 78.6027 76.8902 78.6027 78.6748C78.6027 80.7005 79.0006 82.5092 79.7964 84.1009C80.6164 85.6925 81.7378 86.9345 83.1607 87.8268C84.6076 88.695 86.2355 89.1291 88.0442 89.1291C89.1777 89.1291 90.2629 88.9964 91.2999 88.7312C92.3369 88.4418 93.2172 87.9956 93.9407 87.3927V82.256H88.4783V78.5301H97.9561V88.9482C97.0879 90.0334 95.7735 90.9498 94.013 91.6974C92.2766 92.4209 90.2629 92.7827 87.9719 92.7827Z" fill="#7E7E83"/>
<path d="M111.093 92.7827C107.764 92.7827 105.353 91.7818 103.858 89.7802C102.362 87.7786 101.615 84.8726 101.615 81.0623V65.833H105.666V81.1346C105.666 83.9562 106.088 85.9819 106.932 87.2119C107.777 88.4177 109.163 89.0206 111.093 89.0206C113.022 89.0206 114.396 88.4297 115.216 87.248C116.061 86.0422 116.483 84.0044 116.483 81.1346V65.833H120.57V81.0623C120.57 84.8485 119.774 87.7545 118.183 89.7802C116.615 91.7818 114.252 92.7827 111.093 92.7827Z" fill="#7E7E83"/>
<path d="M131.463 92.7827C130.016 92.7827 128.581 92.5294 127.158 92.023C125.735 91.5166 124.71 90.9498 124.083 90.3228L126 86.8863C126.507 87.3445 127.291 87.8268 128.352 88.3333C129.437 88.8156 130.474 89.0567 131.463 89.0567C132.741 89.0567 133.778 88.7553 134.574 88.1524C135.394 87.5495 135.804 86.7175 135.804 85.6564C135.804 84.8364 135.587 84.125 135.153 83.5221C134.719 82.9192 134.188 82.4248 133.561 82.039C132.934 81.629 132.042 81.1346 130.884 80.5558C129.509 79.8806 128.569 79.3741 128.062 79.0365C125.723 77.469 124.553 75.2985 124.553 72.5252C124.553 70.2342 125.313 68.4857 126.832 67.2799C128.352 66.05 130.269 65.4351 132.584 65.4351C135.068 65.4351 137.178 66.1465 138.915 67.5693L136.997 70.8612C136.539 70.3788 135.888 69.9689 135.044 69.6313C134.224 69.2695 133.344 69.0886 132.403 69.0886C131.198 69.0886 130.245 69.366 129.546 69.9206C128.87 70.4512 128.533 71.247 128.533 72.3081C128.533 73.0557 128.75 73.731 129.184 74.3339C129.618 74.9127 130.161 75.4191 130.812 75.8532C131.487 76.2873 132.391 76.8178 133.525 77.4449C134.61 78.0478 135.442 78.5301 136.021 78.8918C136.6 79.2294 137.142 79.6394 137.649 80.1217C138.348 80.7488 138.915 81.4963 139.349 82.3645C139.783 83.2327 140 84.1853 140 85.2223C140 86.8381 139.626 88.2127 138.879 89.3461C138.155 90.4796 137.142 91.3357 135.84 91.9145C134.562 92.4933 133.103 92.7827 131.463 92.7827Z" fill="#7E7E83"/>
</svg>
