<svg width="32" height="33" viewBox="0 0 32 33" fill="none" xmlns="http://www.w3.org/2000/svg">
  <rect y="0.5" width="32" height="32" rx="16" fill="none"/>
  <path d="M22.0831 20.6821C22.376 20.6823 22.6576 20.7951 22.8696 20.9972C23.0816 21.1994 23.2077 21.4753 23.2218 21.7679C23.2358 22.0604 23.1368 22.3472 22.9452 22.5688C22.7536 22.7903 22.4841 22.9297 22.1926 22.9579L22.0831 22.9633H9.91694C9.62403 22.9631 9.3424 22.8503 9.13041 22.6481C8.91842 22.446 8.79233 22.1701 8.77825 21.8775C8.76417 21.5849 8.8632 21.2981 9.0548 21.0766C9.2464 20.855 9.5159 20.7157 9.80745 20.6874L9.91694 20.6821H22.0831ZM22.0831 15.3594C22.3856 15.3594 22.6757 15.4796 22.8896 15.6935C23.1035 15.9074 23.2236 16.1975 23.2236 16.5C23.2236 16.8025 23.1035 17.0926 22.8896 17.3065C22.6757 17.5204 22.3856 17.6406 22.0831 17.6406H9.91694C9.61444 17.6406 9.32433 17.5204 9.11043 17.3065C8.89653 17.0926 8.77637 16.8025 8.77637 16.5C8.77637 16.1975 8.89653 15.9074 9.11043 15.6935C9.32433 15.4796 9.61444 15.3594 9.91694 15.3594H22.0831ZM22.0831 10.0368C22.3856 10.0368 22.6757 10.1569 22.8896 10.3708C23.1035 10.5847 23.2236 10.8748 23.2236 11.1773C23.2236 11.4798 23.1035 11.7699 22.8896 11.9838C22.6757 12.1977 22.3856 12.3179 22.0831 12.3179H9.91694C9.61444 12.3179 9.32433 12.1977 9.11043 11.9838C8.89653 11.7699 8.77637 11.4798 8.77637 11.1773C8.77637 10.8748 8.89653 10.5847 9.11043 10.3708C9.32433 10.1569 9.61444 10.0368 9.91694 10.0368H22.0831Z" fill="#7B7B7B"/>
</svg>
